<svg xmlns="http://www.w3.org/2000/svg" version="1.1" xmlns:xlink="http://www.w3.org/1999/xlink" xmlns:svgjs="http://svgjs.dev/svgjs" width="1000" height="623" viewBox="0 0 1000 623"><g transform="matrix(1,0,0,1,-0.6060606060606233,0.2522267206477409)"><svg viewBox="0 0 396 247" data-background-color="#ffffff" preserveAspectRatio="xMidYMid meet" height="623" width="1000" xmlns="http://www.w3.org/2000/svg" xmlns:xlink="http://www.w3.org/1999/xlink"><g id="tight-bounds" transform="matrix(1,0,0,1,0.2400000000000091,-0.09999999999999432)"><svg viewBox="0 0 395.52 247.2" height="247.2" width="395.52"><g><svg></svg></g><g><svg viewBox="0 0 395.52 247.2" height="247.2" width="395.52"><g transform="matrix(1,0,0,1,111.38893958868894,37.08)"><svg viewBox="0 0 172.7421208226221 173.04" height="173.04" width="172.7421208226221"><g><svg viewBox="0 0 172.7421208226221 173.04" height="173.04" width="172.7421208226221"><g><svg viewBox="0 0 172.74212082262213 173.04000000000002" height="173.04" width="172.7421208226221"><g><svg viewBox="0 0 172.74212082262213 173.04000000000002" height="173.04000000000002" width="172.74212082262213"><g id="textblocktransform"><svg viewBox="0 0 172.74212082262213 173.04000000000002" height="173.04000000000002" width="172.74212082262213" id="textblock"><g><svg viewBox="0 0 172.74212082262213 173.04000000000002" height="173.04000000000002" width="172.74212082262213"><g transform="matrix(1,0,0,1,0,0)"><svg width="172.74212082262213" viewBox="-3.439999997615814 -39.54999923706055 43.47999954223633 43.54999923706055" height="173.04000000000002" data-palette-color="#001f3f"><path d="M13.87 0L0.56 0 0.56-5 3.05-5.37 13.65-35.55 22.92-35.55 33.54-5.37 36.04-5 36.04 0 22.75 0 22.75-5 25.07-5.44 24-9.3 12.57-9.3 11.55-5.44 13.87-5 13.87 0ZM17.75-25.95L14.38-15.31 22.17-15.31 18.7-26.07 18.31-27.32 18.16-27.32 17.75-25.95Z" opacity="1" transform="matrix(1,0,0,1,0,0)" fill="#001f3f" class="undefined-text-0" data-fill-palette-color="primary" id="text-0"></path></svg></g></svg></g></svg></g></svg></g></svg></g></svg></g></svg></g><g mask="url(&quot;#8ea69cb5-fb25-42b0-849f-fb0af7536c19&quot;)"><g transform="matrix(1.946031746031746, 0, 0, 1.946031746031746, 75.16, 1)"><svg xmlns="http://www.w3.org/2000/svg" xmlns:xlink="http://www.w3.org/1999/xlink" version="1.1" x="0" y="0" viewBox="1 1 126 126" style="enable-background:new 0 0 128 128;" xml:space="preserve" height="126" width="126" class="icon-none" data-fill-palette-color="accent" id="none"><g fill="#5046e4" data-fill-palette-color="accent"><path d="M110.937 52.703c-7.691-4.44-16.653-5.62-25.231-3.321-8.267 2.215-15.218 7.411-19.687 14.668 9.403 17.409 3.288 39.323-13.954 49.278-5.771 3.331-12.084 4.915-18.313 4.915-0.632 0-1.264-0.028-1.894-0.062C41.271 123.777 52.257 127 64 127c31.814 0 58.104-23.586 62.378-54.223C124.154 64.602 118.837 57.265 110.937 52.703z" fill="#5046e4" data-fill-palette-color="accent"></path><path d="M64 1c-8.339 0-16.291 1.635-23.575 4.577C34.448 11.591 30.749 19.872 30.749 29c0 18.01 14.396 32.711 32.285 33.226 4.938-8.026 12.624-13.774 21.766-16.224 9.482-2.54 19.386-1.237 27.887 3.671 6.348 3.666 11.181 8.957 14.295 15.043C126.983 64.476 127 64.24 127 64 127 29.206 98.795 1 64 1z" fill="#5046e4" data-fill-palette-color="accent"></path><path d="M50.314 110.297c15.598-9.006 21.13-28.825 12.632-44.574C43.168 65.162 27.249 48.91 27.249 29c0-7.337 2.17-14.175 5.891-19.918C13.961 19.882 1 40.421 1 64c0 20.167 9.486 38.105 24.228 49.636C33.414 115.793 42.419 114.854 50.314 110.297z" fill="#5046e4" data-fill-palette-color="accent"></path></g></svg></g></g><mask id="8ea69cb5-fb25-42b0-849f-fb0af7536c19"><rect width="640" height="400" fill="white"></rect><g transform="matrix(1,0,0,1,111.38893958868894,37.08)"><svg viewBox="0 0 172.7421208226221 173.04" height="173.04" width="172.7421208226221"><g><svg viewBox="0 0 172.7421208226221 173.04" height="173.04" width="172.7421208226221"><g><svg viewBox="0 0 172.74212082262213 173.04000000000002" height="173.04" width="172.7421208226221"><g><svg viewBox="0 0 172.74212082262213 173.04000000000002" height="173.04000000000002" width="172.74212082262213"><g id="SvgjsG1254"><svg viewBox="0 0 172.74212082262213 173.04000000000002" height="173.04000000000002" width="172.74212082262213" id="SvgjsSvg1253"><g><svg viewBox="0 0 172.74212082262213 173.04000000000002" height="173.04000000000002" width="172.74212082262213"><g transform="matrix(1,0,0,1,0,0)"><svg width="172.74212082262213" viewBox="-3.439999997615814 -39.54999923706055 43.47999954223633 43.54999923706055" height="173.04000000000002" data-palette-color="#001f3f"><path d="M13.87 0L0.56 0 0.56-5 3.05-5.37 13.65-35.55 22.92-35.55 33.54-5.37 36.04-5 36.04 0 22.75 0 22.75-5 25.07-5.44 24-9.3 12.57-9.3 11.55-5.44 13.87-5 13.87 0ZM17.75-25.95L14.38-15.31 22.17-15.31 18.7-26.07 18.31-27.32 18.16-27.32 17.75-25.95Z" opacity="1" transform="matrix(1,0,0,1,0,0)" fill="#001f3f" class="undefined-text-0" data-fill-palette-color="primary" id="SvgjsPath1252" stroke-width="7" stroke="black" stroke-linejoin="round"></path></svg></g></svg></g></svg></g></svg></g></svg></g></svg></g></svg></g></mask></svg></g><defs></defs></svg><rect width="395.52" height="247.2" fill="none" stroke="none" visibility="hidden"></rect></g></svg></g></svg>